<svg width="61" height="68" viewBox="0 0 61 68" fill="none" xmlns="http://www.w3.org/2000/svg">
  <g id="Group 22">
    <path id="Path 42"
          d="M46.9591 41.6131C46.9591 45.7554 46.9269 49.8982 46.9591 54.0731C47.0239 57.6988 45.5029 60.3192 42.3309 62.0346C40.001 63.2968 37.7676 64.7208 35.4377 65.983C32.2013 67.7305 28.8661 67.8601 25.5994 66.0151C18.7058 62.0991 11.8233 58.1393 4.95175 54.1357C1.65058 52.1959 0 49.1862 0 45.3348C0 37.5678 0.0648087 29.7984 0.0321777 22.0336C0.0321777 17.9235 1.87673 14.9785 5.37232 12.9717C7.7997 11.5478 10.2593 10.1238 12.7188 8.7646C13.9004 8.05708 15.2553 7.69152 16.6324 7.70864C18.0095 7.72577 19.3549 8.12491 20.5185 8.86159C28.3826 13.4249 36.2145 17.9883 44.1111 22.519C46.2149 23.749 46.8943 25.6257 46.8943 27.8591C46.9591 32.4225 46.9265 37.018 46.9265 41.6135H46.9586M38.2856 42.2616H38.3504C38.3504 38.8957 38.2534 35.5623 38.3826 32.1968C38.4148 30.1256 37.7354 28.7338 35.8582 27.6983C29.8387 24.3649 23.884 20.9001 17.8967 17.5038C17.3787 17.2124 16.7963 16.7918 16.2461 16.8566C12.8471 17.1154 8.76821 21.7436 8.73784 25.3357C8.70566 30.7402 8.77002 36.1125 8.70566 41.5152C8.64085 44.7515 10.0327 47.0493 12.8158 48.6029C16.732 50.8359 20.7773 52.8748 24.4664 55.401C28.7062 58.3138 32.5571 58.1842 36.6672 55.304C37.8646 54.4951 38.35 53.7178 38.3178 52.3265C38.253 48.9605 38.2856 45.6271 38.2856 42.2616Z"
          fill="#D0D0D0"/>
    <path id="Path 43"
          d="M52.2337 56.0147V39.9304C52.2337 35.2052 52.1688 30.5449 52.2658 25.8846C52.298 22.5186 50.8419 20.1887 47.9604 18.5707C39.8697 13.9752 31.7809 9.25006 23.6879 4.55755C23.1717 4.29741 22.6551 3.97472 22.1035 3.65113C27.508 -0.782598 31.2298 -1.10755 37.0879 2.29151C43.2062 5.81928 49.2887 9.34659 55.4378 12.8417C59.0635 14.8812 60.9398 17.9553 60.9398 22.0976C60.972 29.8647 61.0368 37.5995 60.972 45.3993C60.9071 50.9334 57.412 53.9114 52.2337 56.0147Z"
          fill="#D0D0D0"/>
    <path id="Path 44"
          d="M32.8828 54.0732C30.0349 52.4553 27.6401 51.0313 25.1783 49.6717C24.3367 49.1863 24.3367 48.4417 24.3367 47.6323C24.3367 45.2697 24.2397 42.8736 24.3689 40.5124C24.4985 38.2799 23.627 36.8559 21.685 35.8543C19.5812 34.7539 17.5748 33.4596 15.5037 32.2944C14.7269 31.8411 14.0149 31.4206 14.0475 30.3202C14.0797 27.537 14.0475 24.7539 14.0475 21.4527C20.0022 24.9465 25.5363 28.0854 30.9734 31.4192C32.2678 32.2286 32.8828 33.717 32.8828 35.3027V54.0732Z"
          fill="#D0D0D0"/>
  </g>
</svg>
